<?xml version="1.0" encoding="UTF-8" standalone="no"?>
<!-- Created with Inkscape (http://www.inkscape.org/) -->

<svg
   xmlns:dc="http://purl.org/dc/elements/1.1/"
   xmlns:cc="http://creativecommons.org/ns#"
   xmlns:rdf="http://www.w3.org/1999/02/22-rdf-syntax-ns#"
   xmlns:svg="http://www.w3.org/2000/svg"
   xmlns="http://www.w3.org/2000/svg"
   xmlns:xlink="http://www.w3.org/1999/xlink"
   xmlns:sodipodi="http://sodipodi.sourceforge.net/DTD/sodipodi-0.dtd"
   xmlns:inkscape="http://www.inkscape.org/namespaces/inkscape"
   width="744.09448819"
   height="1052.3622047"
   id="svg5802"
   version="1.1"
   inkscape:version="0.48.1 r9760"
   sodipodi:docname="logotype.svg">
  <defs
     id="defs5804">
    <linearGradient
       inkscape:collect="always"
       xlink:href="#linearGradient5341-3-59-2"
       id="linearGradient5432-4-4"
       gradientUnits="userSpaceOnUse"
       x1="-152.53302"
       y1="795.78345"
       x2="-540.43158"
       y2="165.44824" />
    <linearGradient
       id="linearGradient5341-3-59-2">
      <stop
         style="stop-color:#2a2aa9;stop-opacity:1;"
         offset="0"
         id="stop5343-5-1-3" />
      <stop
         style="stop-color:#2a2aff;stop-opacity:0.70588237;"
         offset="1"
         id="stop5345-9-5-3" />
    </linearGradient>
    <linearGradient
       inkscape:collect="always"
       xlink:href="#linearGradient5341-3-59-2-0"
       id="linearGradient5432-4-4-0"
       gradientUnits="userSpaceOnUse"
       x1="-152.53302"
       y1="795.78345"
       x2="-540.43158"
       y2="165.44824"
       gradientTransform="matrix(0.23013525,0,0,0.23013525,211.66961,297.90898)" />
    <linearGradient
       id="linearGradient5341-3-59-2-0">
      <stop
         style="stop-color:#2a2aa9;stop-opacity:1;"
         offset="0"
         id="stop5343-5-1-3-2" />
      <stop
         style="stop-color:#2a2aff;stop-opacity:0.70588237;"
         offset="1"
         id="stop5345-9-5-3-2" />
    </linearGradient>
    <linearGradient
       y2="323.16327"
       x2="-482.9313"
       y1="795.78345"
       x1="-152.53302"
       gradientTransform="matrix(0.21520538,0,0,0.21520538,284.45201,10.826061)"
       gradientUnits="userSpaceOnUse"
       id="linearGradient5910"
       xlink:href="#linearGradient5341-3-59-2-0-6"
       inkscape:collect="always" />
    <linearGradient
       id="linearGradient5341-3-59-2-0-6">
      <stop
         style="stop-color:#286da3;stop-opacity:1;"
         offset="0"
         id="stop5343-5-1-3-2-5" />
      <stop
         style="stop-color:#50b7d1;stop-opacity:1;"
         offset="1"
         id="stop5345-9-5-3-2-6" />
    </linearGradient>
    <linearGradient
       y2="323.16327"
       x2="-482.9313"
       y1="795.78345"
       x1="-152.53302"
       gradientTransform="matrix(0.93512567,0,0,0.93512567,1470.7848,3229.1412)"
       gradientUnits="userSpaceOnUse"
       id="linearGradient3036"
       xlink:href="#linearGradient5341-3-59-2-0-6"
       inkscape:collect="always" />
  </defs>
  <sodipodi:namedview
     id="base"
     pagecolor="#ffffff"
     bordercolor="#666666"
     borderopacity="1.0"
     inkscape:pageopacity="0.0"
     inkscape:pageshadow="2"
     inkscape:zoom="0.7"
     inkscape:cx="266.5482"
     inkscape:cy="589.06167"
     inkscape:document-units="px"
     inkscape:current-layer="g5406-0-2"
     showgrid="false"
     inkscape:window-width="1440"
     inkscape:window-height="847"
     inkscape:window-x="0"
     inkscape:window-y="26"
     inkscape:window-maximized="1" />
  <metadata
     id="metadata5807">
    <rdf:RDF>
      <cc:Work
         rdf:about="">
        <dc:format>image/svg+xml</dc:format>
        <dc:type
           rdf:resource="http://purl.org/dc/dcmitype/StillImage" />
        <dc:title />
      </cc:Work>
    </rdf:RDF>
  </metadata>
  <g
     inkscape:label="Layer 1"
     inkscape:groupmode="layer"
     id="layer1">
    <g
       id="g5406-0-2"
       transform="matrix(0.23013525,0,0,0.23013525,-122.53637,-433.28155)">
      <g
         transform="translate(1442.4287,1951.7165)"
         id="g5332-7-71-1">
        <path
           style="fill:url(#linearGradient5432-4-4);fill-opacity:1;fill-rule:nonzero;stroke:none"
           d="m -569.99902,335.15387 394.50549,0 c 19.43561,0 35.08234,15.64672 35.08234,35.08234 l 0,394.50549 c 0,19.43561 -15.64673,35.08234 -35.08234,35.08234 l -394.50549,0 c -19.43562,0 -35.08234,-15.64673 -35.08234,-35.08234 l 0,-394.50549 c 0,-19.43562 15.64672,-35.08234 35.08234,-35.08234 z"
           id="rect3810-0-2-3" />
        <g
           transform="matrix(5.2565051,-2.0196054,2.0196054,5.2565051,-3237.4891,-143.72359)"
           style="font-size:40px;font-style:normal;font-weight:normal;line-height:125%;letter-spacing:0px;word-spacing:0px;fill:#ffffff;fill-opacity:1;stroke:none;font-family:Sans"
           id="flowRoot3792-7-2-3">
          <path
             d="m 453.02736,317.39519 c -4.08428,12.25193 -9.885,24.75108 -14.58895,34.92707 l -12.096,0 c -4.70403,-10.17599 -9.60002,-21.69598 -14.688,-34.56 -13.06147,-32.87545 -16.76962,-52.63245 -13.30432,-75.40894 l 15.41794,1.35197 c -3.40362,15.06058 -2.74726,21.05908 3.21438,48.85697 1.63198,5.28006 3.31198,10.56005 5.04,15.84 1.82397,5.18404 3.64797,10.22404 5.472,15.12 1.82397,4.89603 3.55196,9.26402 5.184,13.104 1.63196,-3.83998 3.65052,-8.16859 5.32515,-13.11771 0.92313,-2.72818 1.7394,-4.73976 3.11223,-10.06028 1.79638,-6.70321 1.87259,-8.57223 2.37395,-12.79823 l 14.38693,0.65691"
             style="font-size:144px;font-variant:normal;font-stretch:normal;fill:#ffffff;font-family:Ubuntu;-inkscape-font-specification:Ubuntu"
             id="path5688"
             inkscape:connector-curvature="0"
             sodipodi:nodetypes="ccccccccccsccc" />
        </g>
      </g>
      <flowRoot
         transform="matrix(13.75388,0,0,13.75388,2313.301,-3405.1792)"
         style="font-size:40px;font-style:normal;font-weight:normal;line-height:125%;letter-spacing:0px;word-spacing:0px;fill:#999999;fill-opacity:1;stroke:none;font-family:Sans"
         id="flowRoot5324-8-3-0"
         xml:space="preserve"><flowRegion
           id="flowRegion5326-8-19-3"><rect
             style="fill:#999999"
             y="407.88486"
             x="-70.710678"
             height="456.58896"
             width="840.4469"
             id="rect5328-2-7-4" /></flowRegion><flowPara
           style="font-style:normal;font-variant:normal;font-weight:normal;font-stretch:normal;letter-spacing:-0.0709548px;fill:#b3b3b3;stroke:none;font-family:Cantarell;-inkscape-font-specification:Cantarell"
           id="flowPara5330-5-9-2">erese</flowPara></flowRoot>      <flowRoot
         transform="matrix(12.977939,0,0,12.977939,2270.0454,-1832.3363)"
         style="font-size:40px;font-style:normal;font-weight:normal;line-height:125%;letter-spacing:0px;word-spacing:0px;fill:#999999;fill-opacity:1;stroke:none;font-family:Sans"
         id="flowRoot5324-8-3-0-2"
         xml:space="preserve"><flowRegion
           id="flowRegion5326-8-19-3-4"><rect
             style="fill:#999999"
             y="407.88486"
             x="-70.710678"
             height="456.58896"
             width="840.4469"
             id="rect5328-2-7-4-5" /></flowRegion><flowPara
           style="font-style:normal;font-variant:normal;font-weight:normal;font-stretch:normal;letter-spacing:-0.0709548px;fill:#b3b3b3;stroke:none;font-family:Cantarell;-inkscape-font-specification:Cantarell"
           id="flowPara5330-5-9-2-8">erese</flowPara></flowRoot>      <path
         inkscape:connector-curvature="0"
         style="fill:url(#linearGradient3036);fill-opacity:1;fill-rule:nonzero;stroke:none"
         d="m 942.74577,3542.5178 c 11.8509,58.9929 32.474,95.1094 102.72713,202.7878 17.9939,22.872 36.2629,45.6255 54.7286,68.3155 18.7562,22.0373 37.278,43.3769 55.4905,63.9981 18.2123,20.6217 34.8828,38.8084 50.1572,54.6016 0.7698,-21.9575 2.512,-47.0475 1.3968,-74.5375 -0.6147,-15.1538 -0.3824,-26.4908 -3.6824,-55.2365 -3.8295,-36.3422 -6.9273,-45.7069 -12.4441,-67.4266 l 71.9979,-23.9993 6.476,88.2514 c 2.708,60.0727 -0.7661,123.1387 -4.3173,177.7726 l 41.3956,0 c 18.1748,0 32.761,-14.5862 32.761,-32.7609 l 0,-368.8783 c 0,-18.1747 -14.5862,-32.8879 -32.761,-32.8879 l -363.92593,0 z m -37.8402,120.1235 0,281.6427 c 0,18.1747 14.7132,32.7609 32.8879,32.7609 l 222.08883,0 c -29.5256,-29.9687 -60.3864,-62.3591 -92.9496,-97.7749 -77.49903,-84.028 -128.29463,-150.4824 -162.02713,-216.6287 z"
         id="rect3810-0-2-3-6-3" />
    </g>
  </g>
</svg>
