<?xml version="1.0" encoding="UTF-8" standalone="no"?>
<!-- Created with Inkscape (http://www.inkscape.org/) -->

<svg
   xmlns:dc="http://purl.org/dc/elements/1.1/"
   xmlns:cc="http://creativecommons.org/ns#"
   xmlns:rdf="http://www.w3.org/1999/02/22-rdf-syntax-ns#"
   xmlns:svg="http://www.w3.org/2000/svg"
   xmlns="http://www.w3.org/2000/svg"
   xmlns:xlink="http://www.w3.org/1999/xlink"
   xmlns:sodipodi="http://sodipodi.sourceforge.net/DTD/sodipodi-0.dtd"
   xmlns:inkscape="http://www.inkscape.org/namespaces/inkscape"
   width="744.09448819"
   height="1052.3622047"
   id="svg5912"
   version="1.1"
   inkscape:version="0.48.1 r9760"
   sodipodi:docname="logo_rec.svg"
   inkscape:export-filename="/home/liknus/git/verese.net/website/verese.ico.png"
   inkscape:export-xdpi="90"
   inkscape:export-ydpi="90">
  <defs
     id="defs5914">
    <linearGradient
       inkscape:collect="always"
       xlink:href="#linearGradient5341-3-59-2-0"
       id="linearGradient5432-4-4-0"
       gradientUnits="userSpaceOnUse"
       x1="-152.53302"
       y1="795.78345"
       x2="-540.43158"
       y2="165.44824"
       gradientTransform="matrix(0.23013525,0,0,0.23013525,211.66961,297.90898)" />
    <linearGradient
       id="linearGradient5341-3-59-2-0">
      <stop
         style="stop-color:#286da3;stop-opacity:1;"
         offset="0"
         id="stop5343-5-1-3-2" />
      <stop
         style="stop-color:#50b7d1;stop-opacity:1;"
         offset="1"
         id="stop5345-9-5-3-2" />
    </linearGradient>
    <linearGradient
       y2="323.16327"
       x2="-482.9313"
       y1="795.78345"
       x1="-152.53302"
       gradientTransform="matrix(0.21520538,0,0,0.21520538,378.14366,18.250682)"
       gradientUnits="userSpaceOnUse"
       id="linearGradient5910"
       xlink:href="#linearGradient5341-3-59-2-0"
       inkscape:collect="always" />
    <linearGradient
       y2="323.16327"
       x2="-482.9313"
       y1="795.78345"
       x1="-152.53302"
       gradientTransform="matrix(0.21520538,0,0,0.21520538,378.14366,18.250682)"
       gradientUnits="userSpaceOnUse"
       id="linearGradient5910-5"
       xlink:href="#linearGradient5341-3-59-2-0-3"
       inkscape:collect="always" />
    <linearGradient
       id="linearGradient5341-3-59-2-0-3">
      <stop
         style="stop-color:#2a2aa9;stop-opacity:1;"
         offset="0"
         id="stop5343-5-1-3-2-3" />
      <stop
         style="stop-color:#2a2aff;stop-opacity:0.70588237;"
         offset="1"
         id="stop5345-9-5-3-2-8" />
    </linearGradient>
  </defs>
  <sodipodi:namedview
     id="base"
     pagecolor="#ffffff"
     bordercolor="#666666"
     borderopacity="1.0"
     inkscape:pageopacity="0.0"
     inkscape:pageshadow="2"
     inkscape:zoom="2.8284271"
     inkscape:cx="227.4452"
     inkscape:cy="924.53048"
     inkscape:document-units="px"
     inkscape:current-layer="layer1"
     showgrid="false"
     inkscape:window-width="1440"
     inkscape:window-height="847"
     inkscape:window-x="0"
     inkscape:window-y="26"
     inkscape:window-maximized="1" />
  <metadata
     id="metadata5917">
    <rdf:RDF>
      <cc:Work
         rdf:about="">
        <dc:format>image/svg+xml</dc:format>
        <dc:type
           rdf:resource="http://purl.org/dc/dcmitype/StillImage" />
        <dc:title></dc:title>
      </cc:Work>
    </rdf:RDF>
  </metadata>
  <g
     inkscape:label="Layer 1"
     inkscape:groupmode="layer"
     id="layer1">
    <path
       inkscape:connector-curvature="0"
       style="fill:#ffffff;fill-opacity:1;fill-rule:nonzero;stroke:none"
       d="m 256.62328,90.369693 c 2.72732,13.576337 7.47343,21.888027 23.64114,46.668617 4.14102,5.26365 8.34536,10.50003 12.59498,15.7218 4.31646,5.07158 8.57898,9.98256 12.77031,14.72823 4.19129,4.74578 8.02777,8.93119 11.54295,12.56576 0.17715,-5.0532 0.5781,-10.82729 0.32145,-17.15372 -0.14147,-3.48741 -0.088,-6.09646 -0.84745,-12.71186 -0.8813,-8.36362 -1.59423,-10.51876 -2.86383,-15.51724 l 16.56926,-5.52309 1.49036,20.30976 c 0.6232,13.82485 -0.17632,28.33856 -0.99357,40.91175 l 9.52659,0 c 4.18265,0 7.53945,-3.3568 7.53945,-7.53945 l 0,-84.891884 c 0,-4.182648 -3.3568,-7.568673 -7.53945,-7.568673 l -83.75219,0 z m -8.70836,27.644657 0,64.8159 c 0,4.18265 3.38602,7.53944 7.56867,7.53944 l 51.11047,0 c -6.79489,-6.89685 -13.89706,-14.35102 -21.391,-22.50145 -17.83523,-19.33779 -29.5251,-34.6313 -37.28814,-49.85389 z"
       id="rect3810-0-2-3-6-3" />
    <path
       inkscape:connector-curvature="0"
       style="fill:url(#linearGradient5910);fill-opacity:1;fill-rule:nonzero;stroke:none"
       d="m 256.62328,90.369695 c 2.72732,13.576335 7.47343,21.888025 23.64114,46.668615 4.14102,5.26365 8.34536,10.50003 12.59498,15.7218 4.31646,5.07158 8.57898,9.98256 12.77031,14.72823 4.19129,4.74578 8.02777,8.93119 11.54295,12.56576 0.17715,-5.0532 0.5781,-10.82729 0.32145,-17.15372 -0.14147,-3.48741 -0.088,-6.09646 -0.84745,-12.71186 -0.8813,-8.36362 -1.59423,-10.51876 -2.86383,-15.51724 l 16.56926,-5.52309 1.49036,20.30976 c 0.6232,13.82485 -0.17632,28.33856 -0.99357,40.91175 l 9.52659,0 c 4.18265,0 7.53945,-3.3568 7.53945,-7.53945 l 0,-84.891882 c 0,-4.182648 -3.3568,-7.568673 -7.53945,-7.568673 l -83.75219,0 z m -8.70836,27.644655 0,64.8159 c 0,4.18265 3.38602,7.53945 7.56867,7.53945 l 51.11047,0 c -6.79489,-6.89686 -13.89706,-14.35103 -21.391,-22.50146 -17.83523,-19.33779 -29.5251,-34.6313 -37.28814,-49.85389 z"
       id="rect3810-0-2-3-6" />
  </g>
</svg>
